<svg xmlns="http://www.w3.org/2000/svg" viewBox="0 0 800 800" fill="rgba(255,255,255,1)">
  <path d="M400.1 800C179.7 800.2.1 621-.1 400.5-.2 179.1 178.6.1 400.1 0c220.6-.1 399.9 179 400 399.6 0 221-179 400.2-400 400.4zM655 289.1c8.3-7.3 15-15.7 18-26.5 1-3.4 3.4-8.2-.1-10.4-3.3-2.1-6 2.5-8.8 4.4-4.6 3.3-8.8 7.3-13.2 8.8 2.5-2.9 5.3-6.4 8.4-9.8 7.6-8.3 13.9-17.2 16.3-28.4.5-2.5 2.4-5.9-.3-7.7-2.2-1.4-4.7 1.1-6.8 2.5-2.6 1.6-5.2 3.3-7.7 5 1.1-3.2 2.9-5.6 4.8-8 5.3-6.9 9.1-14.3 9.2-23.2 0-1.5.7-3.5-1-4.3-1.8-.8-2.6 1.2-3.7 2.3-2.8 2.8-4.7 6.5-9 9 3.8-12.7 9.8-24.1 10.4-38.7-23.8 21.9-43.5 46-73 60.6 4-6.3 6-11.5 5.1-18.6-22 23.9-49.5 34.2-80 39.3 1.4-4.6 2.7-8.4 3.9-12.4 1.3-4.4-.5-6-4.8-4.9-4.3 1.1-8.5 3-14.1 2.8 2.1-1.7 3.5-2.7 4.8-3.9 9.7-8.2 17.4-17.8 20.2-30.5.6-2.6 1.9-6.1-.6-7.8-2.8-1.9-5 1.4-7 2.9-5.3 3.9-10.1 8.6-18 11.4 7-6.7 13.1-12.2 17.9-18.9 5.1-7.2 9-14.8 10.2-23.7.2-1.5.9-3.4-.6-4.5s-3.1.1-4.4.9c-3.3 1.9-6.5 4-9.8 6 6.9-11 15.2-21.2 12.4-36-5.4 3.4-7.5 9-12.7 12.3 3.2-9.9 6.3-19.2 9-28.6.7-2.5 3.2-6.4.2-8-2.1-1.1-4.3 2.7-6.2 4.5-15.2 15-29.9 30.4-47.3 43-5.3 3.8-10.7 7.7-17.6 10 4.6-9.2 5.2-11.8 3.5-17.1-8.5 9.8-18.6 17.2-29.8 23.2-3.2 1.7-5.8 1.8-9.3.4-41.8-16.5-84.9-21.5-128.2-8.8-63.7 18.6-103.9 63-126.3 124.1-14.5 39.6-14.9 80.9-8.2 122.1 1 6.2-.8 9-5.5 12.3-11.2 7.8-21.7 16.6-27.6 29.4-4.1 8.9-3.8 17.7 2.3 25.7 6 7.9 14 11.2 23.9 10.1 7.9-.8 14.6-4.5 21.1-8.7 1.1-.7 2.6-3.1 3.7-.7 1.8 3.8 4.8 7.2 4.9 11.9 0 4.6-1 7.4-6.2 8.7-8.4 2.2-16.1 6.5-23.2 11.6-25.3 18-35.7 47.7-25.4 74.3 9 23.2 26.9 36.9 50 44.5 3.5 1.2 5 2.7 5.5 6.3 1.8 13.1 7.8 24.5 17.1 33.7 24.7 24.4 54.5 30.2 87.4 22.9 3.6-.8 5.5-.2 7.9 2.5 34.2 39 100.3 38.2 133.7-1.6 2.1-2.5 3.7-3.1 6.9-2.1 18.6 5.8 37.5 6.1 55.9 0 28.6-9.5 48.7-27.2 53.3-58.7.4-2.8 2-3.4 4.2-4.2 7.7-2.7 14.8-6.5 21.4-11.3 32.1-23.1 38.2-63.2 14.1-92.8-9.3-11.5-21.3-19.2-35-24.4-1.7-.7-4.3-.6-4.2-3.4.4-11.3-3-21.7-8.1-32 9.5-.2 18.8 1.6 25.7-5.8 7.8-8.3 1.9-16.4-1.2-25.1 3 .6 5.3 1 7.5 1.4 9.7 1.8 19.4 3.6 29.4 3.1 4-.2 7.8-.8 10.9-3.8 5.4-5.3 6-11.8 1.8-18.9-3.6-6.2-9.4-10.5-14.2-15.7 1.2-1 2-.3 2.9-.2 11.4 1.6 22.7 2.9 34.2.7 5.9-1.2 8.2-4.8 8.2-10.5 0-6.2-3.2-10.3-7.9-13.8-5.1-3.8-11.2-5.6-17.6-8.6 3.6-.7 6.3-1.1 8.9-1.9 12.4-3.7 23.6-9.3 29.8-21.4 1.6-3.1 3.1-6.9.4-10.1-2.4-2.8-5.9-1.3-8.9-.7-3.9.7-7.7 1.6-11.6 2.2-2.5.4-5 .9-7.8-1 7.2-2.9 14.1-5.5 20.9-8.5 10.4-4.5 15.1-13.3 17.3-23.9.9-4.6-.9-5.7-5.2-4.4-4.1 1.2-8 3.1-13.3 2.6 2.3-1.5 4.1-2.9 5.9-4.5zm-209.2 58.3c-2.7 10.6-7.1 19.1-12.1 27.3-3.9 6.4-8.5 12.3-13.1 18.3-1.8 2.3-3.2 2.4-5.2.4-3.3-3.1-6.9-6-10-9.2-2.7-2.7-4.3-2.9-6.8.4-6.4 8.3-13.4 16.1-19.8 24.4-2.7 3.5-4.3 3.1-7 .2-6.1-6.4-12.7-12.5-18.7-18.9-3-3.2-4.5-3.7-7.3.4-7.1 10.7-14.7 20.9-22.7 32.1-5.7-10.8-11.3-21-16.4-31.4-2.1-4.3-3.3-5.2-6.8-1-6.9 8.3-14.4 16.1-22.3 24.8-6.9-15.1-13.4-29.5-20.2-44.4-9.8 9.1-19.1 17.8-28.9 27-3.4-13.6-6.6-26.5-10-40.1-3.9 3.1-7.1 5.6-10.3 8.2-1.9 1.6-3 2-4.1-.9-4.1-11.3-6.9-22.9-10-36.1 31.5 31.3 69.8 42.6 110.8 46.4 24.5 2.2 48.8-1.2 73-5.7 23.1-4.4 45.3-11.7 67.9-22.2zM412 324.2c-13.6-.1-24-10.8-23.9-24.7.1-13.2 10.9-24 24.2-23.9 13.4.1 24.2 11.3 24 24.8-.3 13.5-10.9 23.9-24.3 23.8zm-169.7-72.7c13.8.1 24.4 10.7 24.2 24.4-.1 13.4-11.1 23.9-25 23.7-13.3-.2-23.9-11.1-23.7-24.4.3-13.2 11.2-23.8 24.5-23.7z"/>
</svg>
