<svg xmlns="http://www.w3.org/2000/svg" viewBox="0 0 797.37 797.37" fill="#fff">
  <path d="M382.05 0h32c2.63.33 5.25.77 7.89 1 9.11.76 18.28 1 27.32 2.22 27.24 3.71 54.07 9.45 79.91 19 16.87 6.2 33.4 13.36 49.93 20-3.82 14.12-2 21.59 6 27.06 9.12 6.27 20.93 5 32.84-3.62l13.27 9.14c-5.72 3.31-12.56 5.71-9.28 13.76a7.86 7.86 0 008.71 4.81c5.45-.72 6.61-2.37 8.29-12.79 7.73 6.52 15.26 12.66 22.56 19.07 24.19 21.23 45.93 44.73 64.42 71.1a391.53 391.53 0 0154.06 111.07c7.91 25.81 13.38 52.18 15.44 79.18.51 6.77 1.3 13.53 2 20.29v33a26.85 26.85 0 00-1 4.85c-.51 22.59-4.19 44.75-9.11 66.71a384.06 384.06 0 01-24.87 74.39c-.9 2-2.63 4.53-4.45 5-5.8 1.53-9.68 4.71-12 10.16-.53 1.24-1.51 2.83-2.63 3.19-9.68 3.14-13.91-.12-13.19-9.93 0-.27-.26-.56-.43-.92h-26.42v35.29c-6.83.12-13.39.47-19.94.28-4-.1-6.49-1.65-6.21-6.75.52-9.28.15-18.6.15-28.55h-34.18v89.07h-44.07v-12.37h-29.61c-1.43 18.31 2.59 36.51-1.52 54.67-1 .06-1.79.06-2.59.17a12 12 0 00-2.88.58c-4.23 1.74-5.93.8-6.22-3.8-.19-3.1 0-6.22 0-9.91h-29.29v-23.77h-47.44v5.14c0 7.83-.13 15.68.09 23.51.08 2.89-.59 4.5-3.65 4.48-6.09 0-12.2-.3-18.28-.12-4 .11-4.5-1.86-4.47-5.24.15-16.18-.07-32.36.18-48.53.06-3.91-1.18-5.61-4.93-5.61h-24.46v96h-24.77c-.87-18 2.6-35.83-1.47-53.73h-21.64c-7.58 0-9.22 1.77-7.24-8.38.05-.26-.25-.59-.74-1.62h-23c-8.08 0-8.08 0-8.15 7.94 0 2.83.47 5.67-4.12 5.57-4-.08-7-.49-6.91-5.39v-14.22c-14.47 0-28.45.2-42.41-.11-5.1-.12-8.32.49-7.91 6.64.21 3.11-.67 6.29-.66 9.43 0 11.34.23 22.67.23 34 0 2.41.24 5.8-1.15 7.07-5.07 4.64-4.79 10.52-5.17 16.52-.33 4.93-1.47 9.81-2.25 14.71l-2.17.34c-1.74-2.26-4.49-4.32-5-6.83a71.18 71.18 0 01-1-15.25c.12-6.81.77-13.62 1.16-20.43.27-4.78-2.17-7-6.81-7-8.17 0-16.34-.13-24.5.13-1.25 0-3.37 1.83-3.49 3a62.06 62.06 0 00.06 11.33c.3 3.66-.49 5.93-4.62 6.68-7.61 1.38-15.16 3.13-22.7 4.86-4.53 1-7.5 3.78-8 8.71a23.42 23.42 0 01-2.49-1.21 426.16 426.16 0 01-66-51.67 390.52 390.52 0 01-73.09-96c-24.31-45-39.69-92.86-45.42-143.79a406.92 406.92 0 01-1-81.76c2.18-24.68 7.12-48.76 13.22-72.69 2.08-8.14 5-12.81 14.6-15 14.65-3.29 28.54-10 42.73-15.33 10.73-4 21.42-8.16 32.44-12.37.58 2.36 1 3.46 1.12 4.6 3.39 24.62 6.37 49.32 10.27 73.87 3.52 22.18 8.32 44.13 16.83 65.08 4.14 10.21 9 19.95 17 27.76 9 8.83 19.83 8.83 27 .08a6.4 6.4 0 001-5.12c-3.44-10.83-7.71-21.43-10.71-32.38A380.44 380.44 0 01153.65 290c-.53-19.13-.1-38.28-.1-57.33 2.4-.65 4.13-1.15 5.87-1.59 29.82-7.52 59.58-15.32 89.49-22.48 38-9.11 76.06-18.29 114.33-26.33 30.1-6.32 60.54-11 90.85-16.31a492 492 0 0175.87-7c9.46-.18 18.76-1.83 27.19-6.77 3.28-1.92 4.71-4.33 4-8.12s-1.16-7.88-2-11.77c-2.39-11.63-6.25-22.69-14.1-31.86-10.4-12.16-24.58-15.2-39.38-13.81-17.61 1.66-35.34 3.83-52.52 7.89-41.54 9.84-83.08 19.94-124.1 31.73-45 12.93-89.43 27.8-134 42-12.37 3.94-24.54 8.56-37.13 13-.72-14.57 3.71-27.86 6.46-41.41 2.24-11 5-22 2.59-33.45-1-4.74-3.41-7.12-7.7-6.27-18.52 3.7-34.33 11.79-45.23 28-10 14.84-13.6 31.52-14 49-.22 8.57.87 17.18 1.38 26.06l-62.91 24.19c.95-2.3 1.24-3.14 1.63-3.92A401.23 401.23 0 01173 69.85a396 396 0 01119.19-55.31A376.92 376.92 0 01361.77 2c6.77-.58 13.52-1.34 20.28-2zm135.59 194.91l-.63-1.31c.4-4.19 1.12-8.38 1.1-12.56 0-3.61-2.28-5.59-6.07-5.93-20.74-1.85-45.11 11.59-51.12 34.22a295.71 295.71 0 00-9 50.72c-1.57 18.38-3 36.79-4.9 55.14-1.67 16-3.86 31.9-6.11 47.81a6.89 6.89 0 01-3.78 4.43c-21.93 8.74-44.05 17-65.9 25.94a317.83 317.83 0 00-32.53 15.54c-5.88 3.24-10.73 8.83-9.46 16.22a32.78 32.78 0 006.43 14c1.24 1.58 6.15.65 9.32.29 5.26-.6 10.73-.93 15.65-2.65 16-5.61 31.77-12.08 47.82-17.65 9.07-3.14 18.53-5.16 28.58-7.89 0 4.52.07 7.49 0 10.46-1.06 38.14-3.38 76.26-1 114.43 1.21 19.25 3.46 38.26 9.74 56.61 2.86 8.36 3.69 9 12.41 7.63a33.39 33.39 0 009-2.65 5.5 5.5 0 002.52-4.24c-.38-19.16-1.8-38.33-1.39-57.46.7-33.13 2.28-66.24 4-99.34.56-11.09 2.43-22.11 4-33.13a4.94 4.94 0 013.11-3.18c23.41-5.65 46.78-11.58 70.34-16.55 34.36-7.25 68.88-13.68 103.29-20.66 21.68-4.4 43.25-9.27 64.93-13.66 3.28-.66 4.16-2.17 4.06-5-.2-5.81-.05-11.66-.74-17.42-1.17-9.91-3.36-19.65-9.72-27.72a8.48 8.48 0 00-6.11-3c-9.43.6-18.94 1.15-28.21 2.88-22.55 4.2-45.28 7.93-67.39 13.89-32.94 8.88-65.4 19.55-98.09 29.38-10.31 3.11-20.7 6-31.42 9 2.11-13.18 4.07-25.49 6-37.79l1.24-1c1.39 1.85 2.52 4 4.22 5.48 11.85 10.39 25.37 14.73 41.27 12.15 14.18-2.3 22.79-11 28.18-23.22 5.72-12.94 10.74-26.22 15.49-39.55 5.65-15.87 11.06-31.84 15.87-48 3.33-11.2 3.53-22.22-6.15-31.3-7.16-6.72-15.1-12.15-24.42-14.93-15.15-4.5-24.62-3.83-34.7 11.36-2.56 3.97-6.49 6.88-9.73 10.21zM253.88 299.19c-2.47 9.54-2.76 17.8.1 25.82 3.78 10.61 10.3 19.24 21.62 22.1s21.5-1.11 30.12-9c4.15-3.81 8.55-7.35 12-10.29 3.47 9.86 5.76 19.62 10.18 28.3 10.11 19.87 37 22.39 48.93 3.68 3-4.76 7.49-8.62 11.86-13.53 1.13 7.66 3.85 11.5 9.35 11.79 5.35.29 10.82-.66 16.14-1.63 1.47-.27 3.21-2.35 3.69-3.94.86-2.81.85-5.88 1.18-8.85 2.07-18.48 3.4-37.08 6.38-55.41 4.13-25.42 9.54-50.64 14.26-76 .22-1.21-.57-3.45-1.53-3.92-12.35-6.09-33.22-1.1-38.05 10.25-4.76-2.73-9.36-7.24-14.51-8-17.4-2.56-32.39 3.63-44.23 16.42-7.11 7.69-9.77 17.83-12.35 27.74-3.49 13.4-6.24 27-10.18 40.26-3 10.08-8.68 18.59-19.12 22.83-2.53 1-4.08.78-5.89-1.51-6-7.65-6.5-16.34-4.32-25.09 2.39-9.58 5.91-18.86 8.78-28.31 4.23-13.9 1.5-21.5-11.41-27.9-15-7.43-25.05-8.23-36 8.77-5.53 8.58-9.9 17.88-15 26.74-2.06 3.59-4.66 6.87-7 10.28l-1.54-.65c1-7.36 2.43-14.69 3.09-22.09 1.7-18.89 1.66-19-14.55-18.87a13.38 13.38 0 00-2.92.53c-12.39 3-17.23 12.61-20.05 23.63-4.54 17.71-3.24 35.55-1.18 53.49 3.2 27.84 9.4 55 17 81.91 1.16 4.14 3.64 5.83 7.22 6.36a22 22 0 0015.22-3c2.6-1.59 3.32-3.56 2.73-6.22a139.9 139.9 0 01-2-49c2.37-17.59 8.35-33.56 21.98-47.69zM234.04 544.9c-3.14-3-5.85-4.83-7.57-7.34-6.35-9.26-12.59-18.56-18.46-28.18-8-13.29-14.85-27.34-26-38.56-14.1-14.14-30.13-12.07-44.11-1a6.94 6.94 0 00-2.02 4.18c-2.65 17.73-.05 35.25 3.34 52.5 5 25.27 10.83 50.39 16.79 75.46 4 16.83 8.26 33.64 16.66 49 3.35 6.15 6.8 12.22 13.23 15.71 6.22 3.37 12.82 3.91 19.14.66 5.14-2.64 6.47-7.8 6.35-13.21a40.28 40.28 0 00-1.15-9.88c-4.8-17.14-9.83-34.23-14.81-51.33-2-6.71-4.44-13.33-3.2-21.08 2.11 3 3.61 5.84 5.69 8.1 16.91 18.36 33.6 36.93 51 54.78 9.33 9.55 21 14.44 34.91 11 3.16-.78 4.56-1.92 4.13-5.32-1.12-8.9-2-17.83-3-26.75-1.79-16.16-3.94-32.29-5.25-48.5a329.41 329.41 0 01-1.16-36.9c.39-12.25 2.05-24.48 3.43-36.69 1.71-15.17 4-30.28 5.47-45.48 1-10.06 1-20.21 1.53-30.88-4-.44-7.07-.81-10.16-1.12-19.92-2-34.46 6.3-41.82 24.88-7.89 19.92-7.93 40.87-6.47 61.85 1.03 14.34 2.28 28.56 3.51 44.1zm459.55-127.48l-1.33-.88c.16-2.09.23-4.19.5-6.27.44-3.44 1.35-6.86 1.44-10.3.1-3.68-1.57-6.48-5.8-6.62-8.31-.3-16.54-.19-24.49 2.95-9.68 3.81-12.92 9-12.34 19.27 1 18.45 1.86 36.92 2.68 55.38 1 21.73 2.89 43.34 7.93 64.56 2.55 10.77 3.09 11.16 14.22 10.92h1.5c10.45-.9 14.29-5.12 14.42-15.37.25-19.47.29-38.95 1.12-58.4a71.18 71.18 0 017.78-30c3.31-6.35 7.68-11.44 15-13.83 0 1.8.06 3.28 0 4.75-.65 12.28-1.65 24.56-1.93 36.86-.33 14.5.86 28.88 7.37 42.21 5.48 11.21 13.36 15.78 25.66 14.66 3.87-.35 7.64-1.93 11.44-3 4.46-1.25 6.06-3.66 5.23-8.7-1.41-8.66-1.88-17.48-2.58-26.25-1-12.27-2.37-24.54-2.53-36.82-.25-18.8-.48-37.68 1.06-56.38.7-8.62-.62-14.42-7.91-18.64-3.13-1.8-6.24-3.89-9.65-4.89-13-3.81-22.79-1.49-29.28 11.25a309.77 309.77 0 00-3.88 8c-2.74 5.83-5.1 11.86-8.28 17.44-1.79 3.1-4.87 5.43-7.35 8.1zm-324 70.66l-1.24 1.34c-5.18-4.25-10.66-8.18-15.49-12.8-13.07-12.5-28.65-12-40.38 1.61-7.91 9.21-11.36 20.4-13.5 32-4 21.85-3.25 43.73 1.05 65.44 2.68 13.5 6.73 26.64 15 38 10.62 14.51 27.21 15.78 39.61 2.79 5.25-5.5 9.47-12 14.35-17.84 3.19-3.84 6.72-7.39 10.1-11.08 1.46 5.34 2 10.12 4.09 14.12 1.78 3.46 4.76 7.14 8.13 8.68 3.19 1.46 7.76.89 11.35-.12 1.22-.35 1.81-4.75 1.81-7.3 0-24.68-.62-49.36-.34-74 .23-21.09 1.86-42.11 6.89-62.9-9.78-7.22-20.13-9.16-31.14-3.28-8.18 4.32-11.87 13.9-10.24 25.34zM549.07 507c.14 17.2 1.6 30.42 7 43 7.57 17.61 23.58 23.08 40.46 18.62 14.08-3.72 22-14.13 27.83-26.48 6.52-13.61 9.09-28.14 10.22-43.14 1.52-20.15-.43-39.76-7.2-58.83-.69-2-1.53-4.31-3.07-5.47-7.51-5.69-15-11.42-23-16.4-7.8-4.86-16.14-4.06-23.24 1.51a40.44 40.44 0 00-9.78 11.69C554.32 456 550.22 483 549.07 507zm-11-86.51c-3.2-.94-5.27-2.15-7.24-2a92.81 92.81 0 00-13.75 2.09c-10.67 2.43-18.56 8.42-20.82 19.51s-4.71 22.17-4.88 33.3a574.64 574.64 0 002 58.83c1.21 13.92 4.49 27.72 7.57 41.4 1.63 7.24 2.84 7.42 10.18 6.85s10.49-2.81 10.94-10c1-15.75 2.27-31.58 1.7-47.31-.73-20.07.45-39.77 5-59.33 3.32-14.14 6.11-28.4 9.33-43.34zM89.69 403.31c-9.33.1-15.84 5.63-15.88 13.5s5.31 13.54 12.69 13.53c8.56 0 16.11-6.57 15.89-13.8-.22-6.97-6.29-13.3-12.7-13.23zm35.16 179c.07-6.74-4.17-11.45-10.39-11.54-8.75-.12-16.9 5.59-17.12 12-.24 7 7.64 15.47 14.6 15.69 6.78.22 12.82-7.34 12.94-16.14zm588.37-349.12c8.28 0 14.94-5.57 15.07-12.56.14-7.9-4.82-12.6-13.32-12.64-8.22 0-14.78 6-14.68 13.41.11 7.2 5.14 11.79 12.93 11.79zm-82 22.52c-1.14 5.86 5.33 9.88 9.93 9.91 6.35 0 11.35-4.56 11.42-10.61.06-6.35-3.55-9.77-10.37-9.82-7.01-.05-10.94 3.72-10.99 10.52zm133.77 89c-.06-5.37-3.66-8.27-10.09-8.12-5.1.13-8.79 4.43-8.56 10 .18 4.17 4.5 7.68 9.41 7.65a9 9 0 009.23-9.48zm-635.7 108c-.13-5.57-4-11.38-7.65-11.45-3.43-.07-7.85 6.55-7.91 11.86 0 2.28 6.3 5.94 10.26 5.85s5.34-2.6 5.29-6.22zM62.16 312.88l-.28-2.33c-1.77-1.11-3.41-2.77-5.33-3.19-2.86-.62-6.66 3.06-6.75 6.08-.11 3.86 3 6 5.65 5.42s4.51-3.86 6.71-5.98zm721.25 97c1.35.71 4 3.12 5.23 2.54 2-.94 3.77-3.66 4.42-6 .26-.92-2.67-3.91-4.17-3.92-3.13.01-5.55 1.99-5.48 7.4zM65.94 526c.57-3.39-2-4.78-5-4.41-1.82.23-4.48 2-4.88 3.51-.88 3.33 2.34 6.19 5.92 6.37 3.77.19 3.73-2.4 3.96-5.47zm524.31-406.38c2.64 2.37 3.87 4.35 5.46 4.7 3.27.71 6.93-2.63 6.31-5.89-.31-1.64-3.13-4.33-4.06-4.05-2.42.74-4.41 2.86-7.71 5.24z"/>
  <path d="M536.67 216c.63 30.21-4.45 71.8-21.78 94-3.85-2.81-8.21-5.21-11.54-8.61-4.15-4.23-7.54-9.23-11.06-14a6.29 6.29 0 01-.91-4.07c2.74-23.51 14.65-41.85 32.36-56.84 4.04-3.48 8.25-6.72 12.93-10.48zM366.76 342.55c-3.4-36.82 1.16-70.55 19.44-101.92 5.52 2 8.63 5.92 8.69 10.88.1 9.39-.72 18.8-1.33 28.2-.75 11.55-1.67 23.1-2.51 34.65-.09 1.16.31 2.65-.27 3.43-5.07 6.73-10.12 13.5-15.61 19.89-1.69 1.97-4.71 2.8-8.41 4.87zM372.31 512c1 11.64 2.59 24.34 3.13 37.08.42 9.93-.42 19.87-6.11 28.7-3.73 5.79-9.08 8.91-15.71 10.84a217.35 217.35 0 01-13.56-46.39c-1.76-9.8-3.22-19.62-1.05-29.61 2.74-12.6 12.16-15.93 22.28-7.89 3.05 2.38 6.52 4.27 11.02 7.27zM594 531.47c-9.22-9.5-9.58-21.38-7.3-32.5 3.57-17.47 9.26-34.5 14.63-51.55 12.87 18.74 11.55 69.8-7.33 84.05z"/>
</svg>
